<svg width="310" height="75" viewBox="0 0 310 75" fill="none" xmlns="http://www.w3.org/2000/svg">
<path d="M30.8066 1.6L24.1066 51H23.9066L18.3066 1.6H0.306641L12.5066 73H32.9066L39.1066 25H39.3066L45.5066 73H65.9066L78.1066 1.6H60.1066L55.1066 51H54.9066L47.6066 1.6H30.8066ZM119.639 37.3C119.639 32.5 119.705 28.5333 119.839 25.4C119.972 22.2 120.239 19.6667 120.639 17.8C121.105 15.9333 121.739 14.6333 122.539 13.9C123.405 13.1667 124.539 12.8 125.939 12.8C127.339 12.8 128.439 13.1667 129.239 13.9C130.105 14.6333 130.739 15.9333 131.139 17.8C131.605 19.6667 131.905 22.2 132.039 25.4C132.172 28.5333 132.239 32.5 132.239 37.3C132.239 42.1 132.172 46.1 132.039 49.3C131.905 52.4333 131.605 54.9333 131.139 56.8C130.739 58.6667 130.105 59.9667 129.239 60.7C128.439 61.4333 127.339 61.8 125.939 61.8C124.539 61.8 123.405 61.4333 122.539 60.7C121.739 59.9667 121.105 58.6667 120.639 56.8C120.239 54.9333 119.972 52.4333 119.839 49.3C119.705 46.1 119.639 42.1 119.639 37.3ZM100.439 37.3C100.439 43.9667 100.872 49.6667 101.739 54.4C102.605 59.0667 104.039 62.9 106.039 65.9C108.039 68.8333 110.672 70.9333 113.939 72.2C117.205 73.4667 121.205 74.1 125.939 74.1C130.672 74.1 134.672 73.4667 137.939 72.2C141.205 70.9333 143.839 68.8333 145.839 65.9C147.839 62.9 149.272 59.0667 150.139 54.4C151.005 49.6667 151.439 43.9667 151.439 37.3C151.439 30.6333 151.005 24.9667 150.139 20.3C149.272 15.5667 147.839 11.7333 145.839 8.8C143.839 5.8 141.205 3.63333 137.939 2.3C134.672 0.899996 130.672 0.199996 125.939 0.199996C121.205 0.199996 117.205 0.899996 113.939 2.3C110.672 3.63333 108.039 5.8 106.039 8.8C104.039 11.7333 102.605 15.5667 101.739 20.3C100.872 24.9667 100.439 30.6333 100.439 37.3ZM196.705 31.8V15H200.305C203.105 15 205.105 15.6333 206.305 16.9C207.572 18.1667 208.205 20.3 208.205 23.3C208.205 25.8333 207.572 27.9 206.305 29.5C205.038 31.0333 203.072 31.8 200.405 31.8H196.705ZM178.105 1.6V73H196.705V44.4H201.605C202.738 44.4 203.672 44.5667 204.405 44.9C205.205 45.1667 205.838 45.7 206.305 46.5C206.838 47.2333 207.205 48.2667 207.405 49.6C207.605 50.9333 207.705 52.6 207.705 54.6V59.4C207.705 60.1333 207.705 61.1 207.705 62.3C207.772 63.4333 207.838 64.6333 207.905 65.9C208.038 67.1667 208.205 68.4333 208.405 69.7C208.672 70.9667 209.038 72.0667 209.505 73H229.305V72C228.705 71.6667 228.272 71.3333 228.005 71C227.738 70.6 227.472 70.2 227.205 69.8C227.005 69.4 226.838 68.8333 226.705 68.1C226.572 67.3667 226.472 66.5667 226.405 65.7C226.338 64.7667 226.305 63.8 226.305 62.8C226.305 61.8 226.305 60.8333 226.305 59.9V53.8C226.305 49 225.472 45.2333 223.805 42.5C222.138 39.7667 219.072 38.2 214.605 37.8V37.6C218.872 36.9333 221.972 35.1333 223.905 32.2C225.838 29.2667 226.805 25.4 226.805 20.6C226.805 17.8667 226.438 15.3333 225.705 13C225.038 10.6667 223.905 8.66666 222.305 7C220.772 5.26666 218.738 3.93333 216.205 3C213.738 2.06666 210.738 1.6 207.205 1.6H178.105ZM254.827 1.6V73H273.427V54.1L277.327 48.1L288.227 73H309.427L289.227 32.8L307.227 1.6H287.427L273.627 29H273.427V1.6H254.827Z" fill="#303030"/>
</svg>
