<svg width="459" height="75" viewBox="0 0 459 75" fill="none" xmlns="http://www.w3.org/2000/svg">
<path d="M19 31.8V15H22.6C25.4 15 27.4 15.6333 28.6 16.9C29.8667 18.1667 30.5 20.3 30.5 23.3C30.5 25.8333 29.8667 27.9 28.6 29.5C27.3333 31.0333 25.3667 31.8 22.7 31.8H19ZM0.4 1.6V73H19V44.4H23.9C25.0333 44.4 25.9667 44.5667 26.7 44.9C27.5 45.1667 28.1333 45.7 28.6 46.5C29.1333 47.2333 29.5 48.2667 29.7 49.6C29.9 50.9333 30 52.6 30 54.6V59.4C30 60.1333 30 61.1 30 62.3C30.0667 63.4333 30.1333 64.6333 30.2 65.9C30.3333 67.1667 30.5 68.4333 30.7 69.7C30.9667 70.9667 31.3333 72.0667 31.8 73H51.6V72C51 71.6667 50.5667 71.3333 50.3 71C50.0333 70.6 49.7667 70.2 49.5 69.8C49.3 69.4 49.1333 68.8333 49 68.1C48.8667 67.3667 48.7667 66.5667 48.7 65.7C48.6333 64.7667 48.6 63.8 48.6 62.8C48.6 61.8 48.6 60.8333 48.6 59.9V53.8C48.6 49 47.7667 45.2333 46.1 42.5C44.4333 39.7667 41.3667 38.2 36.9 37.8V37.6C41.1667 36.9333 44.2667 35.1333 46.2 32.2C48.1333 29.2667 49.1 25.4 49.1 20.6C49.1 17.8667 48.7333 15.3333 48 13C47.3333 10.6667 46.2 8.66666 44.6 7C43.0667 5.26666 41.0333 3.93333 38.5 3C36.0333 2.06666 33.0333 1.6 29.5 1.6H0.4ZM77.8219 1.6V73H121.022V57.8H96.4219V43.6H118.622V29H96.4219V16.8H120.122V1.6H77.8219ZM176.322 23.3V27.3H194.322V22.8C194.322 19.3333 193.889 16.2333 193.022 13.5C192.222 10.7 190.889 8.33333 189.022 6.4C187.222 4.4 184.855 2.86666 181.922 1.8C178.989 0.73333 175.422 0.199996 171.222 0.199996C166.422 0.199996 162.389 0.866664 159.122 2.2C155.855 3.46667 153.222 5.56666 151.222 8.5C149.222 11.4333 147.789 15.2667 146.922 20C146.122 24.7333 145.722 30.5 145.722 37.3C145.722 43.9667 146.055 49.6667 146.722 54.4C147.455 59.0667 148.755 62.9 150.622 65.9C152.489 68.8333 155.089 70.9333 158.422 72.2C161.755 73.4667 166.022 74.1 171.222 74.1C174.222 74.1 177.122 73.7667 179.922 73.1C182.789 72.5 185.322 71.3 187.522 69.5C189.722 67.6333 191.489 65.1 192.822 61.9C194.155 58.7 194.822 54.6 194.822 49.6V44.3H176.822C176.822 47.7 176.722 50.5333 176.522 52.8C176.389 55 176.122 56.7667 175.722 58.1C175.322 59.4333 174.755 60.4 174.022 61C173.289 61.5333 172.355 61.8 171.222 61.8C169.822 61.8 168.689 61.4333 167.822 60.7C167.022 59.9667 166.389 58.6667 165.922 56.8C165.522 54.9333 165.255 52.4333 165.122 49.3C164.989 46.1 164.922 42.1 164.922 37.3C164.922 32.5 164.989 28.5333 165.122 25.4C165.255 22.2 165.522 19.6667 165.922 17.8C166.389 15.9333 167.022 14.6333 167.822 13.9C168.689 13.1667 169.822 12.8 171.222 12.8C173.022 12.8 174.322 13.5333 175.122 15C175.922 16.4667 176.322 19.2333 176.322 23.3ZM220.833 1.6V73H239.433V1.6H220.833ZM285.409 32.4V15H288.909C293.709 15 296.109 17.9 296.109 23.7C296.109 26.7 295.476 28.9 294.209 30.3C293.009 31.7 291.243 32.4 288.909 32.4H285.409ZM266.809 1.6V73H285.409V45.8H291.909C299.576 45.8 305.376 43.9667 309.309 40.3C313.309 36.5667 315.309 31 315.309 23.6C315.309 20.4667 314.909 17.5667 314.109 14.9C313.309 12.2333 312.043 9.93333 310.309 8C308.643 6 306.509 4.43333 303.909 3.3C301.309 2.16666 298.243 1.6 294.709 1.6H266.809ZM341.22 1.6V73H384.42V57.8H359.82V43.6H382.02V29H359.82V16.8H383.52V1.6H341.22ZM439.02 22.2H456.42C456.42 14.5333 454.587 8.96666 450.92 5.5C447.32 1.96666 441.454 0.199996 433.32 0.199996C425.454 0.199996 419.587 2.1 415.72 5.9C411.854 9.7 409.92 15.2333 409.92 22.5C409.92 26.7 410.62 30.1 412.02 32.7C413.487 35.3 415.287 37.4 417.42 39C419.62 40.6 421.987 41.9 424.52 42.9C427.054 43.9 429.387 44.9 431.52 45.9C433.72 46.8333 435.52 48 436.92 49.4C438.387 50.7333 439.12 52.5667 439.12 54.9C439.12 56.8333 438.587 58.4667 437.52 59.8C436.52 61.1333 435.054 61.8 433.12 61.8C431.32 61.8 429.854 61.2 428.72 60C427.587 58.7333 427.02 56.5667 427.02 53.5V51.8H409.02V54.3C409.02 58.0333 409.554 61.1667 410.62 63.7C411.687 66.2333 413.22 68.3 415.22 69.9C417.287 71.4333 419.787 72.5 422.72 73.1C425.72 73.7667 429.154 74.1 433.02 74.1C441.22 74.1 447.487 72.4 451.82 69C456.154 65.5333 458.32 60 458.32 52.4C458.32 48.0667 457.554 44.5667 456.02 41.9C454.554 39.1667 452.687 36.9667 450.42 35.3C448.154 33.6333 445.72 32.3 443.12 31.3C440.52 30.2333 438.087 29.2 435.82 28.2C433.554 27.2 431.654 26.0333 430.12 24.7C428.654 23.3 427.92 21.4333 427.92 19.1C427.92 17.5 428.387 16.0667 429.32 14.8C430.254 13.4667 431.72 12.8 433.72 12.8C435.52 12.8 436.854 13.5667 437.72 15.1C438.587 16.5667 439.02 18.3667 439.02 20.5V22.2Z" fill="#303030"/>
</svg>
