<svg width="339" height="75" viewBox="0 0 339 75" fill="none" xmlns="http://www.w3.org/2000/svg">
<path d="M30.9059 23.3V27.3H48.9059V22.8C48.9059 19.3333 48.4725 16.2333 47.6059 13.5C46.8059 10.7 45.4725 8.33333 43.6059 6.4C41.8059 4.4 39.4392 2.86666 36.5059 1.8C33.5725 0.73333 30.0059 0.199996 25.8059 0.199996C21.0059 0.199996 16.9725 0.866664 13.7059 2.2C10.4392 3.46667 7.80586 5.56666 5.80586 8.5C3.80586 11.4333 2.37253 15.2667 1.50586 20C0.70586 24.7333 0.30586 30.5 0.30586 37.3C0.30586 43.9667 0.639193 49.6667 1.30586 54.4C2.03919 59.0667 3.33919 62.9 5.20586 65.9C7.07253 68.8333 9.67253 70.9333 13.0059 72.2C16.3392 73.4667 20.6059 74.1 25.8059 74.1C28.8059 74.1 31.7059 73.7667 34.5059 73.1C37.3725 72.5 39.9059 71.3 42.1059 69.5C44.3059 67.6333 46.0725 65.1 47.4059 61.9C48.7392 58.7 49.4059 54.6 49.4059 49.6V44.3H31.4059C31.4059 47.7 31.3059 50.5333 31.1059 52.8C30.9725 55 30.7059 56.7667 30.3059 58.1C29.9059 59.4333 29.3392 60.4 28.6059 61C27.8725 61.5333 26.9392 61.8 25.8059 61.8C24.4059 61.8 23.2725 61.4333 22.4059 60.7C21.6059 59.9667 20.9725 58.6667 20.5059 56.8C20.1059 54.9333 19.8392 52.4333 19.7059 49.3C19.5725 46.1 19.5059 42.1 19.5059 37.3C19.5059 32.5 19.5725 28.5333 19.7059 25.4C19.8392 22.2 20.1059 19.6667 20.5059 17.8C20.9725 15.9333 21.6059 14.6333 22.4059 13.9C23.2725 13.1667 24.4059 12.8 25.8059 12.8C27.6059 12.8 28.9059 13.5333 29.7059 15C30.5059 16.4667 30.9059 19.2333 30.9059 23.3ZM76.1168 1.6V73H94.7168V43.6H106.117V73H124.717V1.6H106.117V27.8H94.7168V1.6H76.1168ZM153.539 1.6V73H196.739V57.8H172.139V43.6H194.339V29H172.139V16.8H195.839V1.6H153.539ZM223.539 1.6V73H242.139V43.6H264.339V29H242.139V16.8H265.839V1.6H223.539ZM319.483 22.2H336.883C336.883 14.5333 335.05 8.96666 331.383 5.5C327.783 1.96666 321.917 0.199996 313.783 0.199996C305.917 0.199996 300.05 2.1 296.183 5.9C292.317 9.7 290.383 15.2333 290.383 22.5C290.383 26.7 291.083 30.1 292.483 32.7C293.95 35.3 295.75 37.4 297.883 39C300.083 40.6 302.45 41.9 304.983 42.9C307.517 43.9 309.85 44.9 311.983 45.9C314.183 46.8333 315.983 48 317.383 49.4C318.85 50.7333 319.583 52.5667 319.583 54.9C319.583 56.8333 319.05 58.4667 317.983 59.8C316.983 61.1333 315.517 61.8 313.583 61.8C311.783 61.8 310.317 61.2 309.183 60C308.05 58.7333 307.483 56.5667 307.483 53.5V51.8H289.483V54.3C289.483 58.0333 290.017 61.1667 291.083 63.7C292.15 66.2333 293.683 68.3 295.683 69.9C297.75 71.4333 300.25 72.5 303.183 73.1C306.183 73.7667 309.617 74.1 313.483 74.1C321.683 74.1 327.95 72.4 332.283 69C336.617 65.5333 338.783 60 338.783 52.4C338.783 48.0667 338.017 44.5667 336.483 41.9C335.017 39.1667 333.15 36.9667 330.883 35.3C328.617 33.6333 326.183 32.3 323.583 31.3C320.983 30.2333 318.55 29.2 316.283 28.2C314.017 27.2 312.117 26.0333 310.583 24.7C309.117 23.3 308.383 21.4333 308.383 19.1C308.383 17.5 308.85 16.0667 309.783 14.8C310.717 13.4667 312.183 12.8 314.183 12.8C315.983 12.8 317.317 13.5667 318.183 15.1C319.05 16.5667 319.483 18.3667 319.483 20.5V22.2Z" fill="#303030"/>
</svg>
