<svg width="389" height="75" viewBox="0 0 389 75" fill="none" xmlns="http://www.w3.org/2000/svg">
<path d="M30.2 22.2H47.6C47.6 14.5333 45.7667 8.96666 42.1 5.5C38.5 1.96666 32.6333 0.199996 24.5 0.199996C16.6333 0.199996 10.7667 2.1 6.9 5.9C3.03333 9.7 1.1 15.2333 1.1 22.5C1.1 26.7 1.8 30.1 3.2 32.7C4.66667 35.3 6.46667 37.4 8.6 39C10.8 40.6 13.1667 41.9 15.7 42.9C18.2333 43.9 20.5667 44.9 22.7 45.9C24.9 46.8333 26.7 48 28.1 49.4C29.5667 50.7333 30.3 52.5667 30.3 54.9C30.3 56.8333 29.7667 58.4667 28.7 59.8C27.7 61.1333 26.2333 61.8 24.3 61.8C22.5 61.8 21.0333 61.2 19.9 60C18.7667 58.7333 18.2 56.5667 18.2 53.5V51.8H0.2V54.3C0.2 58.0333 0.733334 61.1667 1.8 63.7C2.86667 66.2333 4.4 68.3 6.4 69.9C8.46667 71.4333 10.9667 72.5 13.9 73.1C16.9 73.7667 20.3333 74.1 24.2 74.1C32.4 74.1 38.6667 72.4 43 69C47.3333 65.5333 49.5 60 49.5 52.4C49.5 48.0667 48.7333 44.5667 47.2 41.9C45.7333 39.1667 43.8667 36.9667 41.6 35.3C39.3333 33.6333 36.9 32.3 34.3 31.3C31.7 30.2333 29.2667 29.2 27 28.2C24.7333 27.2 22.8333 26.0333 21.3 24.7C19.8333 23.3 19.1 21.4333 19.1 19.1C19.1 17.5 19.5667 16.0667 20.5 14.8C21.4333 13.4667 22.9 12.8 24.9 12.8C26.7 12.8 28.0333 13.5667 28.9 15.1C29.7667 16.5667 30.2 18.3667 30.2 20.5V22.2ZM93.2109 37.3C93.2109 32.5 93.2776 28.5333 93.4109 25.4C93.5443 22.2 93.8109 19.6667 94.2109 17.8C94.6776 15.9333 95.3109 14.6333 96.1109 13.9C96.9776 13.1667 98.1109 12.8 99.5109 12.8C100.911 12.8 102.011 13.1667 102.811 13.9C103.678 14.6333 104.311 15.9333 104.711 17.8C105.178 19.6667 105.478 22.2 105.611 25.4C105.744 28.5333 105.811 32.5 105.811 37.3C105.811 42.1 105.744 46.1 105.611 49.3C105.478 52.4333 105.178 54.9333 104.711 56.8C104.311 58.6667 103.678 59.9667 102.811 60.7C102.011 61.4333 100.911 61.8 99.5109 61.8C98.1109 61.8 96.9776 61.4333 96.1109 60.7C95.3109 59.9667 94.6776 58.6667 94.2109 56.8C93.8109 54.9333 93.5443 52.4333 93.4109 49.3C93.2776 46.1 93.2109 42.1 93.2109 37.3ZM74.0109 37.3C74.0109 43.9667 74.4443 49.6667 75.3109 54.4C76.1776 59.0667 77.6109 62.9 79.6109 65.9C81.6109 68.8333 84.2443 70.9333 87.5109 72.2C90.7776 73.4667 94.7776 74.1 99.5109 74.1C104.244 74.1 108.244 73.4667 111.511 72.2C114.778 70.9333 117.411 68.8333 119.411 65.9C121.411 62.9 122.844 59.0667 123.711 54.4C124.578 49.6667 125.011 43.9667 125.011 37.3C125.011 30.6333 124.578 24.9667 123.711 20.3C122.844 15.5667 121.411 11.7333 119.411 8.8C117.411 5.8 114.778 3.63333 111.511 2.3C108.244 0.899996 104.244 0.199996 99.5109 0.199996C94.7776 0.199996 90.7776 0.899996 87.5109 2.3C84.2443 3.63333 81.6109 5.8 79.6109 8.8C77.6109 11.7333 76.1776 15.5667 75.3109 20.3C74.4443 24.9667 74.0109 30.6333 74.0109 37.3ZM180.177 23.3V27.3H198.177V22.8C198.177 19.3333 197.744 16.2333 196.877 13.5C196.077 10.7 194.744 8.33333 192.877 6.4C191.077 4.4 188.711 2.86666 185.777 1.8C182.844 0.73333 179.277 0.199996 175.077 0.199996C170.277 0.199996 166.244 0.866664 162.977 2.2C159.711 3.46667 157.077 5.56666 155.077 8.5C153.077 11.4333 151.644 15.2667 150.777 20C149.977 24.7333 149.577 30.5 149.577 37.3C149.577 43.9667 149.911 49.6667 150.577 54.4C151.311 59.0667 152.611 62.9 154.477 65.9C156.344 68.8333 158.944 70.9333 162.277 72.2C165.611 73.4667 169.877 74.1 175.077 74.1C178.077 74.1 180.977 73.7667 183.777 73.1C186.644 72.5 189.177 71.3 191.377 69.5C193.577 67.6333 195.344 65.1 196.677 61.9C198.011 58.7 198.677 54.6 198.677 49.6V44.3H180.677C180.677 47.7 180.577 50.5333 180.377 52.8C180.244 55 179.977 56.7667 179.577 58.1C179.177 59.4333 178.611 60.4 177.877 61C177.144 61.5333 176.211 61.8 175.077 61.8C173.677 61.8 172.544 61.4333 171.677 60.7C170.877 59.9667 170.244 58.6667 169.777 56.8C169.377 54.9333 169.111 52.4333 168.977 49.3C168.844 46.1 168.777 42.1 168.777 37.3C168.777 32.5 168.844 28.5333 168.977 25.4C169.111 22.2 169.377 19.6667 169.777 17.8C170.244 15.9333 170.877 14.6333 171.677 13.9C172.544 13.1667 173.677 12.8 175.077 12.8C176.877 12.8 178.177 13.5333 178.977 15C179.777 16.4667 180.177 19.2333 180.177 23.3ZM224.688 1.6V73H243.288V1.6H224.688ZM294.665 16.2L289.565 46.5H299.965L294.865 16.2H294.665ZM306.465 1.6L323.865 73H304.065L302.165 60.5H287.365L285.465 73H265.965L283.065 1.6H306.465ZM346.931 1.6V73H388.431V57.8H365.531V1.6H346.931Z" fill="#303030"/>
</svg>
