<svg width="393" height="75" viewBox="0 0 393 75" fill="none" xmlns="http://www.w3.org/2000/svg">
<path d="M0.4 1.6V73H27.4C32.8 73 37 72.0333 40 70.1C43 68.1 45.2333 65.4667 46.7 62.2C48.2333 58.8667 49.1667 55.0667 49.5 50.8C49.8333 46.4667 50 41.9667 50 37.3C50 32.6333 49.8333 28.1667 49.5 23.9C49.1667 19.5667 48.2333 15.7667 46.7 12.5C45.2333 9.16666 43 6.53333 40 4.6C37 2.6 32.8 1.6 27.4 1.6H0.4ZM19 59.6V15H22.7C24.5 15 25.9333 15.2667 27 15.8C28.0667 16.2667 28.8667 17.3 29.4 18.9C30 20.5 30.3667 22.7667 30.5 25.7C30.7 28.6333 30.8 32.5 30.8 37.3C30.8 42.1 30.7 45.9667 30.5 48.9C30.3667 51.8333 30 54.1 29.4 55.7C28.8667 57.3 28.0667 58.3667 27 58.9C25.9333 59.3667 24.5 59.6 22.7 59.6H19ZM77.1219 1.6V73H95.7219V1.6H77.1219ZM151.598 22.2H168.998C168.998 14.5333 167.165 8.96666 163.498 5.5C159.898 1.96666 154.032 0.199996 145.898 0.199996C138.032 0.199996 132.165 2.1 128.298 5.9C124.432 9.7 122.498 15.2333 122.498 22.5C122.498 26.7 123.198 30.1 124.598 32.7C126.065 35.3 127.865 37.4 129.998 39C132.198 40.6 134.565 41.9 137.098 42.9C139.632 43.9 141.965 44.9 144.098 45.9C146.298 46.8333 148.098 48 149.498 49.4C150.965 50.7333 151.698 52.5667 151.698 54.9C151.698 56.8333 151.165 58.4667 150.098 59.8C149.098 61.1333 147.632 61.8 145.698 61.8C143.898 61.8 142.432 61.2 141.298 60C140.165 58.7333 139.598 56.5667 139.598 53.5V51.8H121.598V54.3C121.598 58.0333 122.132 61.1667 123.198 63.7C124.265 66.2333 125.798 68.3 127.798 69.9C129.865 71.4333 132.365 72.5 135.298 73.1C138.298 73.7667 141.732 74.1 145.598 74.1C153.798 74.1 160.065 72.4 164.398 69C168.732 65.5333 170.898 60 170.898 52.4C170.898 48.0667 170.132 44.5667 168.598 41.9C167.132 39.1667 165.265 36.9667 162.998 35.3C160.732 33.6333 158.298 32.3 155.698 31.3C153.098 30.2333 150.665 29.2 148.398 28.2C146.132 27.2 144.232 26.0333 142.698 24.7C141.232 23.3 140.498 21.4333 140.498 19.1C140.498 17.5 140.965 16.0667 141.898 14.8C142.832 13.4667 144.298 12.8 146.298 12.8C148.098 12.8 149.432 13.5667 150.298 15.1C151.165 16.5667 151.598 18.3667 151.598 20.5V22.2ZM197.509 1.6V73H216.109V43.6H227.509V73H246.109V1.6H227.509V27.8H216.109V1.6H197.509ZM274.931 1.6V73H318.131V57.8H293.531V43.6H315.731V29H293.531V16.8H317.231V1.6H274.931ZM372.731 22.2H390.131C390.131 14.5333 388.298 8.96666 384.631 5.5C381.031 1.96666 375.165 0.199996 367.031 0.199996C359.165 0.199996 353.298 2.1 349.431 5.9C345.565 9.7 343.631 15.2333 343.631 22.5C343.631 26.7 344.331 30.1 345.731 32.7C347.198 35.3 348.998 37.4 351.131 39C353.331 40.6 355.698 41.9 358.231 42.9C360.765 43.9 363.098 44.9 365.231 45.9C367.431 46.8333 369.231 48 370.631 49.4C372.098 50.7333 372.831 52.5667 372.831 54.9C372.831 56.8333 372.298 58.4667 371.231 59.8C370.231 61.1333 368.765 61.8 366.831 61.8C365.031 61.8 363.565 61.2 362.431 60C361.298 58.7333 360.731 56.5667 360.731 53.5V51.8H342.731V54.3C342.731 58.0333 343.265 61.1667 344.331 63.7C345.398 66.2333 346.931 68.3 348.931 69.9C350.998 71.4333 353.498 72.5 356.431 73.1C359.431 73.7667 362.865 74.1 366.731 74.1C374.931 74.1 381.198 72.4 385.531 69C389.865 65.5333 392.031 60 392.031 52.4C392.031 48.0667 391.265 44.5667 389.731 41.9C388.265 39.1667 386.398 36.9667 384.131 35.3C381.865 33.6333 379.431 32.3 376.831 31.3C374.231 30.2333 371.798 29.2 369.531 28.2C367.265 27.2 365.365 26.0333 363.831 24.7C362.365 23.3 361.631 21.4333 361.631 19.1C361.631 17.5 362.098 16.0667 363.031 14.8C363.965 13.4667 365.431 12.8 367.431 12.8C369.231 12.8 370.565 13.5667 371.431 15.1C372.298 16.5667 372.731 18.3667 372.731 20.5V22.2Z" fill="#303030"/>
</svg>
