<svg width="352" height="75" viewBox="0 0 352 75" fill="none" xmlns="http://www.w3.org/2000/svg">
<path d="M28.7 16.2L23.6 46.5H34L28.9 16.2H28.7ZM40.5 1.6L57.9 73H38.1L36.2 60.5H21.4L19.5 73H-7.07805e-08L17.1 1.6H40.5ZM100.166 59.6V42.2H105.366C107.1 42.2 108.633 42.9333 109.966 44.4C111.3 45.8667 111.966 48 111.966 50.8C111.966 53.8 111.3 56.0333 109.966 57.5C108.633 58.9 107.1 59.6 105.366 59.6H100.166ZM100.166 29.6V15H104.666C106.6 15 108.066 15.7333 109.066 17.2C110.066 18.6667 110.566 20.4 110.566 22.4C110.566 24.3333 110.066 26.0333 109.066 27.5C108.066 28.9 106.6 29.6 104.666 29.6H100.166ZM81.5664 1.6V73H109.666C113.533 73 116.833 72.5 119.566 71.5C122.3 70.4333 124.5 68.9667 126.166 67.1C127.9 65.2333 129.166 63 129.966 60.4C130.766 57.8 131.166 54.9667 131.166 51.9C131.166 50.0333 130.9 48.2 130.366 46.4C129.9 44.5333 129.133 42.8333 128.066 41.3C127 39.7667 125.633 38.5 123.966 37.5C122.3 36.4333 120.3 35.8 117.966 35.6V35.4C119.966 35 121.666 34.3 123.066 33.3C124.466 32.3 125.6 31.1 126.466 29.7C127.4 28.2333 128.066 26.6333 128.466 24.9C128.933 23.1 129.166 21.2667 129.166 19.4C129.166 14 127.566 9.7 124.366 6.5C121.233 3.23333 116.333 1.6 109.666 1.6H81.5664ZM175.488 37.3C175.488 32.5 175.555 28.5333 175.688 25.4C175.822 22.2 176.088 19.6667 176.488 17.8C176.955 15.9333 177.588 14.6333 178.388 13.9C179.255 13.1667 180.388 12.8 181.788 12.8C183.188 12.8 184.288 13.1667 185.088 13.9C185.955 14.6333 186.588 15.9333 186.988 17.8C187.455 19.6667 187.755 22.2 187.888 25.4C188.022 28.5333 188.088 32.5 188.088 37.3C188.088 42.1 188.022 46.1 187.888 49.3C187.755 52.4333 187.455 54.9333 186.988 56.8C186.588 58.6667 185.955 59.9667 185.088 60.7C184.288 61.4333 183.188 61.8 181.788 61.8C180.388 61.8 179.255 61.4333 178.388 60.7C177.588 59.9667 176.955 58.6667 176.488 56.8C176.088 54.9333 175.822 52.4333 175.688 49.3C175.555 46.1 175.488 42.1 175.488 37.3ZM156.288 37.3C156.288 43.9667 156.722 49.6667 157.588 54.4C158.455 59.0667 159.888 62.9 161.888 65.9C163.888 68.8333 166.522 70.9333 169.788 72.2C173.055 73.4667 177.055 74.1 181.788 74.1C186.522 74.1 190.522 73.4667 193.788 72.2C197.055 70.9333 199.688 68.8333 201.688 65.9C203.688 62.9 205.122 59.0667 205.988 54.4C206.855 49.6667 207.288 43.9667 207.288 37.3C207.288 30.6333 206.855 24.9667 205.988 20.3C205.122 15.5667 203.688 11.7333 201.688 8.8C199.688 5.8 197.055 3.63333 193.788 2.3C190.522 0.899996 186.522 0.199996 181.788 0.199996C177.055 0.199996 173.055 0.899996 169.788 2.3C166.522 3.63333 163.888 5.8 161.888 8.8C159.888 11.7333 158.455 15.5667 157.588 20.3C156.722 24.9667 156.288 30.6333 156.288 37.3ZM251.755 1.6H233.155V48.4C233.155 53.4 233.688 57.5667 234.755 60.9C235.821 64.2333 237.355 66.9 239.355 68.9C241.421 70.9 243.955 72.2667 246.955 73C250.021 73.7333 253.488 74.1 257.355 74.1C261.288 74.1 264.755 73.7333 267.755 73C270.755 72.2667 273.255 70.9 275.255 68.9C277.321 66.9 278.888 64.2333 279.955 60.9C281.021 57.5667 281.555 53.4 281.555 48.4V1.6H262.955V53.1C262.955 56.5667 262.455 58.9 261.455 60.1C260.455 61.2333 259.088 61.8 257.355 61.8C255.621 61.8 254.255 61.2333 253.255 60.1C252.255 58.9 251.755 56.5667 251.755 53.1V1.6ZM318.921 17.4V73H337.521V17.4H351.521V1.6H305.121V17.4H318.921Z" fill="#303030"/>
</svg>
