<svg width="175" height="12" viewBox="0 0 175 12" fill="none" xmlns="http://www.w3.org/2000/svg">
<path d="M0.966003 1.00399V11H3.164V6.68799H7.21V11H9.408V1.00399H7.21V4.83999H3.164V1.00399H0.966003Z" fill="#34C759"/>
<path d="M13.443 1.00399V11H21.031V9.15199H15.641V6.70199H20.485V4.99399H15.641V2.85199H20.919V1.00399H13.443Z" fill="#34C759"/>
<path d="M27.1411 7.13599L28.4431 3.46799H28.4711L29.7311 7.13599H27.1411ZM27.3511 1.00399L23.5711 11H25.7831L26.5671 8.77399H30.3051L31.0611 11H33.3431L29.6051 1.00399H27.3511Z" fill="#34C759"/>
<path d="M36.3051 1.00399V11H43.3751V9.15199H38.5031V1.00399H36.3051Z" fill="#34C759"/>
<path d="M47.6307 2.85199V11H49.8287V2.85199H52.8247V1.00399H44.6347V2.85199H47.6307Z" fill="#34C759"/>
<path d="M56.0773 1.00399V11H58.2753V6.68799H62.3213V11H64.5193V1.00399H62.3213V4.83999H58.2753V1.00399H56.0773Z" fill="#34C759"/>
<path d="M71.1443 7.10799V11H73.3423V7.16399L77.0523 1.00399H74.6023L72.2783 4.95199L69.9403 1.00399H67.4763L71.1443 7.10799Z" fill="#34C759"/>
<path d="M87.4867 7.68199H85.3587C85.3493 8.29799 85.4613 8.82999 85.6947 9.27799C85.928 9.72599 86.2407 10.0947 86.6327 10.384C87.034 10.6733 87.4913 10.8833 88.0047 11.014C88.5273 11.154 89.064 11.224 89.6147 11.224C90.296 11.224 90.8933 11.1447 91.4067 10.986C91.9293 10.8273 92.3633 10.608 92.7087 10.328C93.0633 10.0387 93.3293 9.69799 93.5067 9.30599C93.684 8.91399 93.7727 8.48932 93.7727 8.03199C93.7727 7.47199 93.6513 7.01466 93.4087 6.65999C93.1753 6.29599 92.8953 6.00666 92.5687 5.79199C92.242 5.57732 91.9107 5.42332 91.5747 5.32999C91.248 5.22732 90.9913 5.15732 90.8047 5.11999C90.1793 4.96132 89.6707 4.83066 89.2787 4.72799C88.896 4.62532 88.5927 4.52266 88.3687 4.41999C88.154 4.31732 88.0093 4.20532 87.9347 4.08399C87.86 3.96266 87.8227 3.80399 87.8227 3.60799C87.8227 3.39332 87.8693 3.21599 87.9627 3.07599C88.056 2.93599 88.1727 2.81932 88.3127 2.72599C88.462 2.63266 88.6253 2.56732 88.8027 2.52999C88.98 2.49266 89.1573 2.47399 89.3347 2.47399C89.6053 2.47399 89.8527 2.49732 90.0767 2.54399C90.31 2.59066 90.5153 2.66999 90.6927 2.78199C90.87 2.89399 91.01 3.04799 91.1127 3.24399C91.2247 3.43999 91.29 3.68732 91.3087 3.98599H93.4367C93.4367 3.40732 93.3247 2.91732 93.1007 2.51599C92.886 2.10532 92.592 1.76932 92.2187 1.50799C91.8453 1.24666 91.416 1.05999 90.9307 0.947991C90.4547 0.826658 89.9553 0.765991 89.4327 0.765991C88.9847 0.765991 88.5367 0.826658 88.0887 0.947991C87.6407 1.06932 87.2393 1.25599 86.8847 1.50799C86.53 1.75999 86.2407 2.07732 86.0167 2.45999C85.802 2.83332 85.6947 3.27666 85.6947 3.78999C85.6947 4.24732 85.7787 4.63932 85.9467 4.96599C86.124 5.28332 86.3527 5.54932 86.6327 5.76399C86.9127 5.97866 87.23 6.15599 87.5847 6.29599C87.9393 6.42666 88.3033 6.53866 88.6767 6.63199C89.0407 6.73466 89.4 6.82799 89.7547 6.91199C90.1093 6.99599 90.4267 7.09399 90.7067 7.20599C90.9867 7.31799 91.2107 7.45799 91.3787 7.62599C91.556 7.79399 91.6447 8.01333 91.6447 8.28399C91.6447 8.53599 91.5793 8.74599 91.4487 8.91399C91.318 9.07266 91.1547 9.19866 90.9587 9.29199C90.7627 9.38532 90.5527 9.45066 90.3287 9.48799C90.1047 9.51599 89.8947 9.52999 89.6987 9.52999C89.4093 9.52999 89.1293 9.49732 88.8587 9.43199C88.588 9.35732 88.35 9.24999 88.1447 9.10999C87.9487 8.96066 87.79 8.76933 87.6687 8.53599C87.5473 8.30266 87.4867 8.01799 87.4867 7.68199Z" fill="#34C759"/>
<path d="M106.7 11L109.388 1.00399H107.232L105.594 7.89199H105.566L103.858 1.00399H101.8L100.064 7.80799H100.036L98.4545 1.00399H96.2565L98.9025 11H101.128L102.794 4.19599H102.822L104.516 11H106.7Z" fill="#34C759"/>
<path d="M112.501 1.00399V11H114.699V1.00399H112.501Z" fill="#34C759"/>
<path d="M120.942 2.85199V11H123.14V2.85199H126.136V1.00399H117.946V2.85199H120.942Z" fill="#34C759"/>
<path d="M136.053 4.36399H138.181C138.115 3.78532 137.957 3.27199 137.705 2.82399C137.453 2.37599 137.131 2.00266 136.739 1.70399C136.356 1.39599 135.917 1.16266 135.423 1.00399C134.937 0.845324 134.419 0.765991 133.869 0.765991C133.103 0.765991 132.413 0.901325 131.797 1.17199C131.19 1.44266 130.677 1.81599 130.257 2.29199C129.837 2.76799 129.515 3.32799 129.291 3.97199C129.067 4.60666 128.955 5.29732 128.955 6.04399C128.955 6.77199 129.067 7.45332 129.291 8.08799C129.515 8.71333 129.837 9.25933 130.257 9.72599C130.677 10.1927 131.19 10.5613 131.797 10.832C132.413 11.0933 133.103 11.224 133.869 11.224C134.485 11.224 135.049 11.1307 135.563 10.944C136.076 10.7573 136.524 10.4867 136.907 10.132C137.289 9.77732 137.597 9.34799 137.831 8.84399C138.064 8.33999 138.209 7.77532 138.265 7.14999H136.137C136.053 7.82199 135.819 8.36333 135.437 8.77399C135.063 9.18466 134.541 9.38999 133.869 9.38999C133.374 9.38999 132.954 9.29666 132.609 9.10999C132.263 8.91399 131.983 8.65732 131.769 8.33999C131.554 8.02266 131.395 7.66799 131.293 7.27599C131.199 6.87466 131.153 6.46399 131.153 6.04399C131.153 5.60532 131.199 5.18066 131.293 4.76999C131.395 4.35932 131.554 3.99532 131.769 3.67799C131.983 3.35132 132.263 3.09466 132.609 2.90799C132.954 2.71199 133.374 2.61399 133.869 2.61399C134.139 2.61399 134.396 2.66066 134.639 2.75399C134.891 2.83799 135.115 2.95932 135.311 3.11799C135.507 3.27666 135.67 3.46332 135.801 3.67799C135.931 3.88332 136.015 4.11199 136.053 4.36399Z" fill="#34C759"/>
<path d="M141.866 1.00399V11H144.064V6.68799H148.11V11H150.308V1.00399H148.11V4.83999H144.064V1.00399H141.866Z" fill="#34C759"/>
<path d="M154.343 1.00399V11H161.931V9.15199H156.541V6.70199H161.385V4.99399H156.541V2.85199H161.819V1.00399H154.343Z" fill="#34C759"/>
<path d="M167.719 5.52599V2.71199H170.127C170.631 2.71199 171.009 2.82399 171.261 3.04799C171.513 3.26266 171.639 3.61266 171.639 4.09799C171.639 4.60199 171.513 4.96599 171.261 5.18999C171.009 5.41399 170.631 5.52599 170.127 5.52599H167.719ZM165.521 1.00399V11H167.719V7.09399H169.917C170.467 7.09399 170.864 7.21532 171.107 7.45799C171.349 7.70066 171.508 8.08332 171.583 8.60599C171.639 9.00732 171.681 9.42733 171.709 9.86599C171.737 10.3047 171.811 10.6827 171.933 11H174.131C174.028 10.86 173.949 10.692 173.893 10.496C173.846 10.2907 173.809 10.076 173.781 9.85199C173.762 9.62799 173.748 9.40866 173.739 9.19399C173.729 8.97933 173.72 8.79266 173.711 8.63399C173.692 8.38199 173.655 8.12999 173.599 7.87799C173.552 7.62599 173.473 7.39732 173.361 7.19199C173.249 6.97732 173.104 6.79532 172.927 6.64599C172.749 6.48732 172.525 6.37066 172.255 6.29599V6.26799C172.815 6.04399 173.216 5.71732 173.459 5.28799C173.711 4.85866 173.837 4.34999 173.837 3.76199C173.837 3.37932 173.767 3.02466 173.627 2.69799C173.496 2.36199 173.3 2.06799 173.039 1.81599C172.787 1.56399 172.479 1.36799 172.115 1.22799C171.76 1.07866 171.359 1.00399 170.911 1.00399H165.521Z" fill="#34C759"/>
</svg>
