<svg width="40" height="40" viewBox="0 0 40 40" fill="none" xmlns="http://www.w3.org/2000/svg">
<path d="M1 20C1 9.50659 9.50659 1 20 1C30.4934 1 39 9.50659 39 20C39 30.4934 30.4934 39 20 39C9.50659 39 1 30.4934 1 20Z" fill="#262626" stroke="#303030" stroke-width="2"/>
<mask id="mask0_5_167" style="mask-type:luminance" maskUnits="userSpaceOnUse" x="12" y="12" width="16" height="16">
<path fill-rule="evenodd" clip-rule="evenodd" d="M27.0743 15.107C26.8839 14.6165 26.63 14.201 26.2145 13.7856C25.7991 13.3701 25.3836 13.1162 24.8931 12.9258C24.42 12.7412 23.8718 12.6142 23.0813 12.5796L23.0679 12.579C22.2821 12.5449 22.0197 12.5334 20 12.5334C17.9689 12.5334 17.715 12.5392 16.9187 12.5796C16.1224 12.6142 15.58 12.7412 15.1068 12.9258C14.6164 13.1162 14.2009 13.3701 13.7855 13.7856C13.37 14.201 13.1161 14.6165 12.9257 15.107C12.7411 15.5801 12.6141 16.1283 12.5795 16.9188L12.5789 16.9322C12.5447 17.718 12.5333 17.9805 12.5333 20.0001C12.5333 22.0312 12.5391 22.2851 12.5795 23.0814C12.6141 23.8777 12.7411 24.4201 12.9257 24.8933C13.1161 25.3837 13.37 25.7992 13.7855 26.2146C14.2009 26.6301 14.6164 26.884 15.1068 27.0744C15.58 27.2591 16.1282 27.386 16.9187 27.4206L16.9321 27.4212C17.7179 27.4554 17.9803 27.4668 20 27.4668C22.0311 27.4668 22.285 27.461 23.0813 27.4206C23.8776 27.386 24.42 27.2591 24.8931 27.0744C25.3836 26.884 25.7991 26.6301 26.2145 26.2146C26.63 25.7992 26.8839 25.3837 27.0743 24.8933C27.2589 24.4201 27.3859 23.8719 27.4205 23.0814L27.4211 23.068C27.4552 22.2822 27.4667 22.0198 27.4667 20.0001C27.4667 17.969 27.4609 17.7151 27.4205 16.9188C27.3859 16.1225 27.2589 15.5801 27.0743 15.107ZM25.5578 22.7579C25.5262 23.4223 25.4154 23.7862 25.3205 24.0235C25.1992 24.3399 25.0463 24.5719 24.809 24.8092C24.5717 25.0464 24.345 25.1941 24.0233 25.3206C23.7808 25.4156 23.4222 25.5263 22.7578 25.5579L22.7235 25.5594H22.7235C22.0282 25.5899 21.7952 25.6001 20 25.6001C18.1755 25.6001 17.9593 25.5948 17.2422 25.5579C16.5778 25.5263 16.2139 25.4156 15.9766 25.3206C15.6603 25.1994 15.4282 25.0464 15.191 24.8092C14.9537 24.5719 14.806 24.3451 14.6795 24.0235C14.5845 23.7809 14.4738 23.4223 14.4422 22.7579L14.4409 22.7294C14.4103 22.0295 14.4 21.7952 14.4 20.0001C14.4 18.1809 14.4053 17.9594 14.4422 17.2423C14.4738 16.5779 14.5845 16.2141 14.6795 15.9768C14.8007 15.6604 14.9537 15.4284 15.191 15.1911C15.4282 14.9538 15.655 14.8061 15.9766 14.6796C16.2192 14.5847 16.5778 14.4739 17.2422 14.4423L17.2707 14.441C17.9706 14.4104 18.205 14.4001 20 14.4001C21.8192 14.4001 22.0407 14.4054 22.7578 14.4423C23.4222 14.4739 23.7861 14.5847 24.0233 14.6796C24.3397 14.8009 24.5717 14.9538 24.809 15.1911C25.0463 15.4284 25.194 15.6551 25.3205 15.9768C25.4154 16.2193 25.5262 16.5779 25.5578 17.2423L25.5591 17.2708C25.5897 17.9707 25.6 18.2051 25.6 20.0001C25.6 21.802 25.5896 22.0364 25.5587 22.7375V22.7376L25.5578 22.7579ZM24.6667 16.2668C24.6667 16.7822 24.2488 17.2001 23.7333 17.2001C23.2179 17.2001 22.8 16.7822 22.8 16.2668C22.8 15.7513 23.2179 15.3334 23.7333 15.3334C24.2488 15.3334 24.6667 15.7513 24.6667 16.2668ZM20 16.2668C17.9396 16.2668 16.2667 17.9398 16.2667 20.0001C16.2667 22.0605 17.9396 23.7334 20 23.7334C22.0603 23.7334 23.7333 22.0605 23.7333 20.0001C23.7333 17.9398 22.0603 16.2668 20 16.2668ZM18.1333 20.0001C18.1333 21.0328 18.9716 21.8668 20 21.8668C21.0284 21.8668 21.8667 21.0285 21.8667 20.0001C21.8667 18.9674 21.0327 18.1334 20 18.1334C18.9673 18.1334 18.1333 18.9717 18.1333 20.0001Z" fill="white"/>
</mask>
<g mask="url(#mask0_5_167)">
<rect x="7.86664" y="7.8667" width="24.2667" height="24.2667" fill="#737373"/>
</g>
</svg>
