<svg width="40" height="40" viewBox="0 0 40 40" fill="none" xmlns="http://www.w3.org/2000/svg">
<path d="M1 20C1 9.50659 9.50659 1 20 1C30.4934 1 39 9.50659 39 20C39 30.4934 30.4934 39 20 39C9.50659 39 1 30.4934 1 20Z" fill="#262626" stroke="#303030" stroke-width="2"/>
<mask id="mask0_5_166" style="mask-type:luminance" maskUnits="userSpaceOnUse" x="11" y="13" width="18" height="15">
<path fill-rule="evenodd" clip-rule="evenodd" d="M28.4 15.1234C27.7819 15.405 27.1182 15.5951 26.4203 15.6796C27.1318 15.2424 27.6785 14.5499 27.9363 13.725C27.2699 14.1294 26.5326 14.4245 25.7476 14.5822C25.1185 13.8957 24.2226 13.4666 23.2306 13.4666C21.327 13.4666 19.7847 15.0486 19.7847 17.0005C19.7847 17.2772 19.8146 17.5476 19.8734 17.806C17.0089 17.6585 14.4693 16.2515 12.7689 14.1132C12.4728 14.6356 12.3026 15.2424 12.3026 15.8902C12.3026 17.1168 12.9113 18.198 13.8355 18.8323C13.271 18.8135 12.7395 18.6552 12.2748 18.3902C12.2743 18.4048 12.2743 18.4204 12.2743 18.4344C12.2743 20.1472 13.4621 21.5758 15.0391 21.9005C14.7503 21.9807 14.4457 22.0243 14.1311 22.0243C13.9085 22.0243 13.6932 22.0022 13.4831 21.9613C13.9211 23.3646 15.1945 24.3866 16.7022 24.4156C15.5233 25.3633 14.0371 25.9292 12.4224 25.9292C12.144 25.9292 11.8694 25.9126 11.6 25.8797C13.125 26.8812 14.9367 27.4666 16.8834 27.4666C23.2227 27.4666 26.6902 22.0814 26.6902 17.4108C26.6902 17.2579 26.686 17.1049 26.6797 16.9531C27.3534 16.455 27.9374 15.8331 28.4 15.1234Z" fill="white"/>
</mask>
<g mask="url(#mask0_5_166)">
<rect x="7.86667" y="7.8667" width="24.2667" height="24.2667" fill="#737373"/>
</g>
</svg>
